<mxfile host="app.diagrams.net" modified="2023-08-14T09:00:54.276Z" agent="Mozilla/5.0 (X11; Linux x86_64) AppleWebKit/537.36 (KHTML, like Gecko) Chrome/107.0.0.0 Safari/537.36" version="21.3.6" etag="Znuvd8diUvBnNxfJiLGS" type="github">
  <diagram name="第 1 页" id="wdvR4C0qIUrqQW8k-UTv">
    <mxGraphModel>
      <root>
        <mxCell id="0" />
        <mxCell id="1" parent="0" />
      </root>
    </mxGraphModel>
  </diagram>
</mxfile>
